<?xml version="1.0" encoding="UTF-8" standalone="no"?>
<!-- Created with Inkscape (http://www.inkscape.org/) -->

<svg
   width="140"
   height="140"
   viewBox="0 0 37.041666 37.041667"
   version="1.1"
   id="svg1"
   sodipodi:docname="clubs.svg"
   inkscape:version="1.4 (e7c3feb100, 2024-10-09)"
   inkscape:export-filename="card_holder.png"
   inkscape:export-xdpi="96"
   inkscape:export-ydpi="96"
   xmlns:inkscape="http://www.inkscape.org/namespaces/inkscape"
   xmlns:sodipodi="http://sodipodi.sourceforge.net/DTD/sodipodi-0.dtd"
   xmlns="http://www.w3.org/2000/svg"
   xmlns:svg="http://www.w3.org/2000/svg">
  <sodipodi:namedview
     id="namedview1"
     pagecolor="#505050"
     bordercolor="#ffffff"
     borderopacity="1"
     inkscape:showpageshadow="0"
     inkscape:pageopacity="0"
     inkscape:pagecheckerboard="1"
     inkscape:deskcolor="#d1d1d1"
     inkscape:document-units="px"
     inkscape:zoom="4"
     inkscape:cx="77.75"
     inkscape:cy="75.75"
     inkscape:window-width="1239"
     inkscape:window-height="761"
     inkscape:window-x="0"
     inkscape:window-y="0"
     inkscape:window-maximized="1"
     inkscape:current-layer="layer1"
     showguides="true" />
  <defs
     id="defs1">
    <inkscape:path-effect
       effect="fillet_chamfer"
       id="path-effect54"
       is_visible="true"
       lpeversion="1"
       nodesatellites_param="F,0,0,1,0,0,0,1 @ F,0,0,1,0,0,0,1 @ F,0,0,1,0,0,0,1 @ F,0,0,1,0,0,0,1"
       radius="0"
       unit="px"
       method="auto"
       mode="F"
       chamfer_steps="1"
       flexible="false"
       use_knot_distance="true"
       apply_no_radius="true"
       apply_with_radius="true"
       only_selected="false"
       hide_knots="false" />
    <inkscape:perspective
       sodipodi:type="inkscape:persp3d"
       inkscape:vp_x="0 : 18.520833 : 1"
       inkscape:vp_y="0 : 1000 : 0"
       inkscape:vp_z="37.041666 : 18.520833 : 1"
       inkscape:persp3d-origin="18.520833 : 12.347222 : 1"
       id="perspective44" />
    <clipPath
       clipPathUnits="userSpaceOnUse"
       id="clipPath15">
      <rect
         style="fill:none;stroke:#000000;stroke-linecap:butt;stroke-linejoin:bevel;paint-order:stroke markers fill;stop-color:#000000"
         id="rect15-7"
         width="45.034248"
         height="38.955639"
         x="262.48285"
         y="121.00073" />
    </clipPath>
  </defs>
  <g
     inkscape:label="Layer 1"
     inkscape:groupmode="layer"
     id="layer1">
    <path
       id="path53"
       style="display:none;fill:#cf1259;fill-opacity:1;stroke:none;stroke-width:2.83277;stroke-miterlimit:4.8;stroke-dasharray:none;stroke-opacity:1"
       inkscape:label="diamonds"
       inkscape:transform-center-y="-1.6162236"
       d="M 18.520833,7.1059635 12.9219,18.16243 18.520833,29.278569 24.119767,18.16243 Z" />
    <path
       id="rect54"
       style="display:none;fill:#cf1259;fill-opacity:1;stroke:none;stroke-width:3.17435;stroke-miterlimit:4.8;stroke-dasharray:none;stroke-opacity:1"
       d="m 18.570171,30.523348 11.123154,-11.12392 a 7.8696041,7.8696058 45.539878 0 0 0.0058,-0.0049 7.8696041,7.8696058 45.539878 0 0 0,-11.130068 7.8696041,7.8696058 45.539878 0 0 -11.128916,3.828e-4 7.8696041,7.8696058 45.539878 0 0 -3.83e-4,3.854e-4 l -0.0065,0.00653 a 7.8696995,7.8696995 0 0 0 -0.09183,-0.1056599 7.8696995,7.8696995 0 0 0 -11.1292997,-1.2e-6 7.8696995,7.8696995 0 0 0 0,11.1293009 7.8696995,7.8696995 0 0 0 0.1060502,0.09222 l -0.00651,0.0065 z"
       inkscape:label="heart" />
    <path
       id="rect54-3"
       style="display:none;fill:#0a100d;fill-opacity:1;stroke:none;stroke-width:3.1118;stroke-miterlimit:4.8;stroke-dasharray:none;stroke-opacity:1"
       inkscape:label="spades"
       d="M 18.472858,3.9437022 7.5691441,14.848378 a 7.7145068,7.7145086 45.539878 0 0 -0.00576,0.0048 7.7145068,7.7145086 45.539878 0 0 0,10.911393 7.7145068,7.7145086 45.539878 0 0 10.4400719,0.427163 l -3.380832,6.249127 h 7.797418 l -3.316517,-6.132919 a 7.7146003,7.7146003 0 0 0 10.375758,-0.447322 7.7146003,7.7146003 0 0 0 0,-10.909473 7.7146003,7.7146003 0 0 0 -0.103676,-0.09119 l 0.0067,-0.0058 z" />
    <path
       id="path56"
       style="display:inline;fill:#0a100d;fill-opacity:1;stroke:none;stroke-width:5.14405;stroke-miterlimit:4.8;stroke-dasharray:none;stroke-opacity:1"
       d="m 18.520307,5.2511263 a 5.2357839,5.2357839 0 0 0 -5.236297,5.2352477 5.2357839,5.2357839 0 0 0 1.525583,3.674891 5.2357839,5.2357839 0 0 0 -1.683621,-0.280251 5.2357839,5.2357839 0 0 0 -5.2352471,5.236297 5.2357839,5.2357839 0 0 0 5.2352471,5.236301 5.2357839,5.2357839 0 0 0 4.362879,-2.348434 l -1.995483,9.128229 h 6.053877 l -1.99548,-9.128229 a 5.2357839,5.2357839 0 0 0 4.36288,2.348434 5.2357839,5.2357839 0 0 0 5.236297,-5.236301 5.2357839,5.2357839 0 0 0 -5.236297,-5.236297 5.2357839,5.2357839 0 0 0 -1.700481,0.297109 5.2357839,5.2357839 0 0 0 1.542444,-3.691749 5.2357839,5.2357839 0 0 0 -5.236301,-5.2352477 z"
       inkscape:label="clubs" />
  </g>
</svg>
