<?xml version="1.0" encoding="UTF-8" standalone="no"?>
<!-- Created with Inkscape (http://www.inkscape.org/) -->

<svg
   width="60"
   height="60"
   viewBox="0 0 15.875 15.875"
   version="1.1"
   id="svg1"
   sodipodi:docname="settings_icons.svg"
   inkscape:version="1.4 (e7c3feb100, 2024-10-09)"
   inkscape:export-filename="settings.png"
   inkscape:export-xdpi="96"
   inkscape:export-ydpi="96"
   xmlns:inkscape="http://www.inkscape.org/namespaces/inkscape"
   xmlns:sodipodi="http://sodipodi.sourceforge.net/DTD/sodipodi-0.dtd"
   xmlns="http://www.w3.org/2000/svg"
   xmlns:svg="http://www.w3.org/2000/svg">
  <sodipodi:namedview
     id="namedview1"
     pagecolor="#505050"
     bordercolor="#ffffff"
     borderopacity="1"
     inkscape:showpageshadow="0"
     inkscape:pageopacity="0"
     inkscape:pagecheckerboard="1"
     inkscape:deskcolor="#d1d1d1"
     inkscape:document-units="px"
     inkscape:zoom="5.5166667"
     inkscape:cx="61.540785"
     inkscape:cy="63.26284"
     inkscape:window-width="1886"
     inkscape:window-height="997"
     inkscape:window-x="0"
     inkscape:window-y="0"
     inkscape:window-maximized="1"
     inkscape:current-layer="layer1"
     showguides="true" />
  <defs
     id="defs1">
    <inkscape:path-effect
       effect="fillet_chamfer"
       id="path-effect1"
       is_visible="true"
       lpeversion="1"
       nodesatellites_param="F,0,0,1,0,1.1363453,0,1 @ F,0,0,1,0,1.0290079,0,1 @ F,0,0,1,0,0,0,1 @ F,0,0,1,0,0,0,1"
       radius="0"
       unit="px"
       method="auto"
       mode="F"
       chamfer_steps="1"
       flexible="false"
       use_knot_distance="true"
       apply_no_radius="true"
       apply_with_radius="true"
       only_selected="false"
       hide_knots="false" />
    <inkscape:path-effect
       effect="fillet_chamfer"
       id="path-effect54"
       is_visible="true"
       lpeversion="1"
       nodesatellites_param="F,0,0,1,0,0,0,1 @ F,0,0,1,0,0,0,1 @ F,0,0,1,0,0,0,1 @ F,0,0,1,0,0,0,1"
       radius="0"
       unit="px"
       method="auto"
       mode="F"
       chamfer_steps="1"
       flexible="false"
       use_knot_distance="true"
       apply_no_radius="true"
       apply_with_radius="true"
       only_selected="false"
       hide_knots="false" />
    <inkscape:perspective
       sodipodi:type="inkscape:persp3d"
       inkscape:vp_x="0 : -2.6458338 : 1"
       inkscape:vp_y="0 : 999.99999 : 0"
       inkscape:vp_z="37.041667 : -2.6458338 : 1"
       inkscape:persp3d-origin="18.520833 : -8.8194448 : 1"
       id="perspective44" />
    <clipPath
       clipPathUnits="userSpaceOnUse"
       id="clipPath15">
      <rect
         style="fill:none;stroke:#000000;stroke-linecap:butt;stroke-linejoin:bevel;paint-order:stroke markers fill;stop-color:#000000"
         id="rect15-7"
         width="45.034248"
         height="38.955639"
         x="262.48285"
         y="121.00073" />
    </clipPath>
    <marker
       markerWidth="6.5049996"
       markerHeight="4.6576304"
       refX="4.7526727"
       refY="5.4029999"
       orient="auto"
       id="marker1"
       viewBox="0 0 9.5053453 6.8059011"
       preserveAspectRatio="xMidYMid">
      <path
         style="fill:#000000;stroke-width:3.77998;paint-order:stroke fill markers"
         d="M 0,6.8059011 1.6793786,0 h 6.0104075 l 1.8155592,6.7757594 z"
         id="path1" />
    </marker>
    <marker
       markerWidth="6.5049996"
       markerHeight="4.6576304"
       refX="4.7526727"
       refY="5.4029999"
       orient="auto"
       id="marker1-7"
       viewBox="0 0 9.5053453 6.8059011"
       preserveAspectRatio="xMidYMid">
      <path
         style="fill:#000000;stroke-width:3.77998;paint-order:stroke fill markers"
         d="M 0,6.8059011 1.6793786,0 h 6.0104075 l 1.8155592,6.7757594 z"
         id="path1-5" />
    </marker>
    <marker
       markerWidth="6.5049996"
       markerHeight="4.6576304"
       refX="4.7526727"
       refY="5.4029999"
       orient="auto"
       id="marker2"
       viewBox="0 0 9.5053453 6.8059011"
       preserveAspectRatio="xMidYMid">
      <path
         style="fill:#000000;stroke-width:3.77998;paint-order:stroke fill markers"
         d="M 0,6.8059011 1.6793786,0 h 6.0104075 l 1.8155592,6.7757594 z"
         id="path2-3" />
    </marker>
    <marker
       markerWidth="6.5049996"
       markerHeight="4.6576304"
       refX="4.7526727"
       refY="5.4029999"
       orient="auto"
       viewBox="0 0 9.5053453 6.8059011"
       preserveAspectRatio="xMidYMid"
       id="marker1-77290"
       inkscape:stockid="marker1-77290">
      <path
         style="fill:#0a100d;stroke:#000000;stroke-width:3.77998;paint-order:stroke fill markers"
         d="M 0,6.8059011 1.6793786,0 h 6.0104075 l 1.8155592,6.7757594 z"
         id="path1-5-1" />
    </marker>
    <marker
       markerWidth="6.5049996"
       markerHeight="4.6576304"
       refX="4.7526727"
       refY="5.4029999"
       orient="auto"
       viewBox="0 0 9.5053453 6.8059011"
       preserveAspectRatio="xMidYMid"
       id="marker1-76783"
       inkscape:stockid="marker1-76783">
      <path
         style="fill:#0a100d;stroke:#000000;stroke-width:3.77998;paint-order:stroke fill markers"
         d="M 0,6.8059011 1.6793786,0 h 6.0104075 l 1.8155592,6.7757594 z"
         id="path1-5-1-1" />
    </marker>
    <marker
       markerWidth="6.5049996"
       markerHeight="4.6576304"
       refX="4.7526727"
       refY="5.4029999"
       orient="auto"
       viewBox="0 0 9.5053453 6.8059011"
       preserveAspectRatio="xMidYMid"
       inkscape:stockid="marker1-772901561"
       id="marker1-772901561">
      <path
         style="fill:#0a100d;stroke:#0a100d;stroke-width:3.77998;paint-order:stroke fill markers"
         d="M 0,6.8059011 1.6793786,0 h 6.0104075 l 1.8155592,6.7757594 z"
         id="path1-5-1-1-1" />
    </marker>
    <marker
       markerWidth="6.5049996"
       markerHeight="4.6576304"
       refX="4.7526727"
       refY="5.4029999"
       orient="auto"
       viewBox="0 0 9.5053453 6.8059011"
       preserveAspectRatio="xMidYMid"
       inkscape:stockid="marker1-767837443"
       id="marker1-767837443">
      <path
         style="fill:#0a100d;stroke:#0a100d;stroke-width:3.77998;paint-order:stroke fill markers"
         d="M 0,6.8059011 1.6793786,0 h 6.0104075 l 1.8155592,6.7757594 z"
         id="path1-5-1-1-1-1" />
    </marker>
    <marker
       markerWidth="6.5049996"
       markerHeight="4.6576304"
       refX="4.7526727"
       refY="5.4029999"
       orient="auto"
       viewBox="0 0 9.5053453 6.8059011"
       preserveAspectRatio="xMidYMid"
       inkscape:stockid="marker1-772901561"
       id="marker1-772901561-7">
      <path
         style="fill:#0a100d;stroke:#0a100d;stroke-width:3.77998;paint-order:stroke fill markers"
         d="M 0,6.8059011 1.6793786,0 h 6.0104075 l 1.8155592,6.7757594 z"
         id="path1-5-1-1-1-5" />
    </marker>
    <marker
       markerWidth="6.5049996"
       markerHeight="4.6576304"
       refX="4.7526727"
       refY="5.4029999"
       orient="auto"
       viewBox="0 0 9.5053453 6.8059011"
       preserveAspectRatio="xMidYMid"
       inkscape:stockid="marker1-767837443"
       id="marker1-767837443-3">
      <path
         style="fill:#0a100d;stroke:#0a100d;stroke-width:3.77998;paint-order:stroke fill markers"
         d="M 0,6.8059011 1.6793786,0 h 6.0104075 l 1.8155592,6.7757594 z"
         id="path1-5-1-1-1-1-5" />
    </marker>
    <marker
       markerWidth="6.5049996"
       markerHeight="4.6576304"
       refX="4.7526727"
       refY="5.4029999"
       orient="auto"
       viewBox="0 0 9.5053453 6.8059011"
       preserveAspectRatio="xMidYMid"
       inkscape:stockid="marker1-772901561-73532"
       id="marker1-772901561-73532">
      <path
         style="fill:#0a100d;stroke:#fdf0d5;stroke-width:3.77998;paint-order:stroke fill markers"
         d="M 0,6.8059011 1.6793786,0 h 6.0104075 l 1.8155592,6.7757594 z"
         id="path1-5-1-1-1-5-1" />
    </marker>
    <marker
       markerWidth="6.5049996"
       markerHeight="4.6576304"
       refX="4.7526727"
       refY="5.4029999"
       orient="auto"
       viewBox="0 0 9.5053453 6.8059011"
       preserveAspectRatio="xMidYMid"
       inkscape:stockid="marker1-767837443-36502"
       id="marker1-767837443-36502">
      <path
         style="fill:#0a100d;stroke:#fdf0d5;stroke-width:3.77998;paint-order:stroke fill markers"
         d="M 0,6.8059011 1.6793786,0 h 6.0104075 l 1.8155592,6.7757594 z"
         id="path1-5-1-1-1-1-5-1" />
    </marker>
    <marker
       markerWidth="6.5049996"
       markerHeight="4.6576304"
       refX="4.7526727"
       refY="5.4029999"
       orient="auto"
       viewBox="0 0 9.5053453 6.8059011"
       preserveAspectRatio="xMidYMid"
       inkscape:stockid="marker1-772901561-735327238"
       id="marker1-772901561-735327238">
      <path
         style="fill:#fdf0d5;stroke:#fdf0d5;stroke-width:3.77998;paint-order:stroke fill markers"
         d="M 0,6.8059011 1.6793786,0 h 6.0104075 l 1.8155592,6.7757594 z"
         id="path1-5-1-1-1-5-1-1" />
    </marker>
    <marker
       markerWidth="6.5049996"
       markerHeight="4.6576304"
       refX="4.7526727"
       refY="5.4029999"
       orient="auto"
       viewBox="0 0 9.5053453 6.8059011"
       preserveAspectRatio="xMidYMid"
       inkscape:stockid="marker1-767837443-365027787"
       id="marker1-767837443-365027787">
      <path
         style="fill:#fdf0d5;stroke:#fdf0d5;stroke-width:3.77998;paint-order:stroke fill markers"
         d="M 0,6.8059011 1.6793786,0 h 6.0104075 l 1.8155592,6.7757594 z"
         id="path1-5-1-1-1-1-5-1-1" />
    </marker>
  </defs>
  <g
     inkscape:label="Layer 1"
     inkscape:groupmode="layer"
     id="layer1">
    <g
       id="path2"
       transform="translate(-0.9743282,0.58009935)"
       style="stroke-width:1.00013;stroke-dasharray:none">
      <path
         style="fill:none;stroke:#0a100d;stroke-width:0.533381;stroke-dasharray:none;stroke-opacity:1;marker-mid:url(#marker1-772901561);marker-end:url(#marker1-767837443)"
         d="m 14.187239,7.3574002 c 0,1.4567645 -0.590471,2.7756178 -1.545132,3.7302778 -0.954662,0.954663 -2.273514,1.545133 -3.7302792,1.545133 -1.4567648,0 -2.775617,-0.590471 -3.7302781,-1.545133 -0.9546612,-0.95466 -1.5451323,-2.2735133 -1.5451323,-3.7302778 0,-1.4567638 0.5904711,-2.7756166 1.5451323,-3.7302778 0.9546611,-0.9546619 2.2735141,-1.5451321 3.7302781,-1.5451321 1.4567652,0 2.7756172,0.5904702 3.7302792,1.5451321 0.95466,0.9546612 1.545132,2.2735133 1.545132,3.7302778 z"
         id="path9-6"
         sodipodi:nodetypes="sssssssss" />
      <path
         id="path9"
         style="fill:#0a100d;fill-opacity:1;stroke:none;stroke-width:0.528336;stroke-dasharray:none;stroke-opacity:1"
         d="m 8.9118282,2.1318234 c -1.4429882,0 -2.7492829,0.5850278 -3.6949164,1.5306613 -0.9456335,0.9456334 -1.5306613,2.2519278 -1.5306613,3.6949159 0,1.4429881 0.5850278,2.7492824 1.5306613,3.6949164 0.9456327,0.945632 2.2519281,1.53066 3.6949164,1.53066 1.4429888,0 2.7492828,-0.585027 3.6949158,-1.53066 0.945634,-0.945634 1.530661,-2.2519283 1.530661,-3.6949164 0,-1.4429881 -0.585028,-2.7492833 -1.530661,-3.6949159 C 11.661111,2.7168505 10.354817,2.1318226 8.9118282,2.1318234 Z m 0,3.0431318 c 0.6026368,-8e-7 1.1481358,0.2444567 1.5430618,0.6393828 0.394927,0.3949254 0.639384,0.9404259 0.639384,1.5430626 0,0.6026367 -0.244456,1.1481364 -0.639384,1.5430619 -0.394926,0.394926 -0.940425,0.6393834 -1.5430618,0.6393834 -0.6026376,0 -1.1481365,-0.2444574 -1.5430619,-0.6393834 C 6.9738401,8.505537 6.7293825,7.9600373 6.7293825,7.3574006 6.7293825,6.7547639 6.9738401,6.2092634 7.3687663,5.814338 7.7636917,5.4194127 8.3091914,5.1749552 8.9118282,5.1749552 Z" />
    </g>
    <g
       id="path2-2"
       transform="translate(-0.9743282,0.58009935)"
       style="stroke-width:1.00013;stroke-dasharray:none">
      <path
         style="fill:none;stroke:#0a100d;stroke-width:0.533381;stroke-dasharray:none;stroke-opacity:1;marker-mid:url(#marker1-772901561-735327238);marker-end:url(#marker1-767837443-365027787)"
         d="m 14.187239,7.3574002 c 0,1.4567645 -0.590471,2.7756178 -1.545132,3.7302778 -0.954662,0.954663 -2.273514,1.545133 -3.7302792,1.545133 -1.4567648,0 -2.775617,-0.590471 -3.7302781,-1.545133 -0.9546612,-0.95466 -1.5451323,-2.2735133 -1.5451323,-3.7302778 0,-1.4567638 0.5904711,-2.7756166 1.5451323,-3.7302778 0.9546611,-0.9546619 2.2735141,-1.5451321 3.7302781,-1.5451321 1.4567652,0 2.7756172,0.5904702 3.7302792,1.5451321 0.95466,0.9546612 1.545132,2.2735133 1.545132,3.7302778 z"
         id="path9-6-9"
         sodipodi:nodetypes="sssssssss" />
      <path
         id="path9-1"
         style="fill:#fdf0d5;fill-opacity:1;stroke:none;stroke-width:0.528336;stroke-dasharray:none;stroke-opacity:1"
         d="m 8.9118282,2.1318234 c -1.4429882,0 -2.7492829,0.5850278 -3.6949164,1.5306613 -0.9456335,0.9456334 -1.5306613,2.2519278 -1.5306613,3.6949159 0,1.4429881 0.5850278,2.7492824 1.5306613,3.6949164 0.9456327,0.945632 2.2519281,1.53066 3.6949164,1.53066 1.4429888,0 2.7492828,-0.585027 3.6949158,-1.53066 0.945634,-0.945634 1.530661,-2.2519283 1.530661,-3.6949164 0,-1.4429881 -0.585028,-2.7492833 -1.530661,-3.6949159 C 11.661111,2.7168505 10.354817,2.1318226 8.9118282,2.1318234 Z m 0,3.0431318 c 0.6026368,-8e-7 1.1481358,0.2444567 1.5430618,0.6393828 0.394927,0.3949254 0.639384,0.9404259 0.639384,1.5430626 0,0.6026367 -0.244456,1.1481364 -0.639384,1.5430619 -0.394926,0.394926 -0.940425,0.6393834 -1.5430618,0.6393834 -0.6026376,0 -1.1481365,-0.2444574 -1.5430619,-0.6393834 C 6.9738401,8.505537 6.7293825,7.9600373 6.7293825,7.3574006 6.7293825,6.7547639 6.9738401,6.2092634 7.3687663,5.814338 7.7636917,5.4194127 8.3091914,5.1749552 8.9118282,5.1749552 Z" />
    </g>
  </g>
</svg>
